<svg xmlns="http://www.w3.org/2000/svg" width="212" height="70" fill="none" viewBox="0 0 212 70">
  <g filter="url(#a)">
    <path fill="#17BDEF" d="M14.5 6H27v3H17l-7 26 7.5 25.5H27V64H14L5.5 35l9-29Zm183 0H185v3h10l7 26-7.5 25.5H185V64h13l8.5-29-9-29Zm-96.544 1h61.119l-1.287 2.155h-57.902L100.956 7Zm12.546 55.318H45.628l1.609-3.592h64.657l1.608 3.592Z" shape-rendering="crispEdges"/>
    <path fill="#17BDEF" fill-opacity=".3" d="m99.537 7 2.709 2.874h59.189L163.043 7h33.807l8.976 27.659-8.976 27.659h-82.222l-2.41-4.67h-65.3l-2.395 4.67H15.742L7.03 34.658 15.742 7h83.795Z" shape-rendering="crispEdges"/>
    <path stroke="#78CCE2" d="M36.455 61.818H27.5V60h-9.626L10.52 34.994 17.383 9.5H27.5v-2h71.821l2.561 2.717.148.157h59.698l.143-.256 1.465-2.618H184.5v2h10.117l6.864 25.494L194.126 60H184.5v1.818h-69.567l-2.27-4.4-.14-.27H46.612l-.14.272-2.254 4.398h-7.763ZM26.5 8.5h-8.73a7.485 7.485 0 0 1 3.713-1H26.5v1Zm-5.018-2h-6.107l-.11.35-1.394 4.425c-.185.381-.344.78-.473 1.194L7.266 32.128c-.075.24-.14.483-.192.727l-.521 1.654-.047.15.047.15.52 1.654c.054.244.118.487.193.727l6.132 19.659a8.5 8.5 0 0 0 .473 1.194l1.394 4.425.11.35H26.5v.682H14.374L6.022 35.004 14.868 6.5h6.644-.03ZM26.5 61v.818h-4.988A7.484 7.484 0 0 1 18.106 61H26.5ZM9.52 35.141l7.38 25.091a7.492 7.492 0 0 1-2.098-2.563l-6.76-21.462a7.5 7.5 0 0 1 0-3.096l6.76-21.462a7.483 7.483 0 0 1 1.523-2.067L9.517 34.87l-.036.136.04.135Zm6.18 25.38a8.567 8.567 0 0 0 1.812 1.297h-1.403L15.7 60.52ZM17.511 7.5a8.523 8.523 0 0 0-1.81 1.296l.408-1.297h1.402Zm179.533 1.716a8.51 8.51 0 0 0-2.23-1.717h1.673l.557 1.717Zm7.934 26.436-2.791 8.6-4.277 12.494a7.492 7.492 0 0 1-2.899 3.786l7.469-25.392.039-.135-.036-.136-6.911-25.667a7.492 7.492 0 0 1 2.338 3.368l4.279 12.499 2.789 8.594c.088.66.088 1.33 0 1.99ZM190.814 7.5c1.346 0 2.629.36 3.742 1H185.5v-1h5.314ZM185.5 61h8.72a7.486 7.486 0 0 1-3.36.818h-5.36V61Zm9.315.818a8.523 8.523 0 0 0 2.229-1.717l-.557 1.717h-1.672Zm-3.952 1h6.351l.112-.346 5.81-17.903.267-.78-5.777 19.711H185.5v-.682h5.363ZM196.85 6.5H185.5h11.632-.282Zm-93.74 2.155L102.075 7.5h59.119l-.69 1.155H103.11Zm8.46 50.57 1.161 2.593h-66.33l1.16-2.592h64.009Z" shape-rendering="crispEdges"/>
  </g>
  <defs>
    <filter id="a" width="211.6" height="68.6" x=".2" y=".7" color-interpolation-filters="sRGB" filterUnits="userSpaceOnUse">
      <feFlood flood-opacity="0" result="BackgroundImageFix"/>
      <feColorMatrix in="SourceAlpha" result="hardAlpha" values="0 0 0 0 0 0 0 0 0 0 0 0 0 0 0 0 0 0 127 0"/>
      <feOffset/>
      <feGaussianBlur stdDeviation="2.65"/>
      <feComposite in2="hardAlpha" operator="out"/>
      <feColorMatrix values="0 0 0 0 1 0 0 0 0 1 0 0 0 0 1 0 0 0 0.7 0"/>
      <feBlend in2="BackgroundImageFix" result="effect1_dropShadow_122_172"/>
      <feBlend in="SourceGraphic" in2="effect1_dropShadow_122_172" result="shape"/>
    </filter>
  </defs>
</svg>
