<svg xmlns="http://www.w3.org/2000/svg" width="906" height="906" fill="none" viewBox="0 0 906 906">
  <path fill="#258ACB" fill-rule="evenodd" d="M494.812 443c8.592 0 16.2 4.216 20.866 10.692a23.162 23.162 0 0 1 1.98-.085c8.235 0 15.449 4.373 19.446 10.922a17.61 17.61 0 0 1 3.319-.315c9.643 0 17.461 7.818 17.461 17.461 0 9.644-7.818 17.461-17.461 17.461v.001H465.03c-12.167 0-22.03-9.864-22.03-22.031 0-12.167 9.863-22.03 22.03-22.03 2.545 0 4.99.432 7.264 1.226 4.376-7.931 12.82-13.302 22.518-13.302Z" clip-rule="evenodd"/>
  <circle cx="453" cy="453" r="453" fill="url(#a)" fill-opacity=".42"/>
  <circle cx="452.007" cy="453.993" r="120.204" fill="#9E9E9E"/>
  <path fill="#FFFDFD" fill-opacity=".17" fill-rule="evenodd" d="M433.204 555.408c66.387 0 120.204-53.817 120.204-120.204 0-28.42-9.863-54.537-26.353-75.114-20.567-16.458-46.658-26.301-75.048-26.301-66.387 0-120.204 53.818-120.204 120.204 0 28.421 9.863 54.538 26.353 75.114 20.567 16.459 46.658 26.301 75.048 26.301Z" clip-rule="evenodd"/>
  <circle cx="501.5" cy="470.5" r="14.5" fill="#9A9A9A"/>
  <circle cx="501.856" cy="470.856" r="13.582" fill="#D9D9D9" fill-opacity=".4" transform="rotate(89.27 501.856 470.856)"/>
  <circle cx="431" cy="457" r="8" fill="#9A9A9A"/>
  <circle cx="431.196" cy="457.196" r="7.494" fill="#D9D9D9" fill-opacity=".4" transform="rotate(89.27 431.196 457.196)"/>
  <circle cx="455" cy="425" r="8" fill="#9A9A9A"/>
  <circle cx="455.196" cy="425.196" r="7.494" fill="#D9D9D9" fill-opacity=".4" transform="rotate(89.27 455.196 425.196)"/>
  <path fill="#9A9A9A" fill-rule="evenodd" d="M355.526 525.703a119.705 119.705 0 0 1-20.107-42.33C340.169 471.996 351.401 464 364.5 464c17.397 0 31.5 14.103 31.5 31.5S381.897 527 364.5 527c-3.118 0-6.13-.453-8.974-1.297Z" clip-rule="evenodd"/>
  <path fill="#D9D9D9" fill-opacity=".4" fill-rule="evenodd" d="M353.942 523.525a119.736 119.736 0 0 1-17.128-35.075c3.391-12.359 14.627-21.51 28.082-21.682 16.295-.207 29.673 12.834 29.88 29.128.208 16.295-12.833 29.673-29.127 29.88a29.406 29.406 0 0 1-11.707-2.251Z" clip-rule="evenodd"/>
  <circle cx="429.5" cy="373.5" r="21.278" fill="#9A9A9A" transform="rotate(163.278 429.5 373.5)"/>
  <circle cx="430.591" cy="374.178" r="19.831" fill="#D9D9D9" fill-opacity=".4" transform="rotate(163.278 430.591 374.178)"/>
  <circle cx="460.5" cy="514.5" r="21.278" fill="#9A9A9A" transform="rotate(163.278 460.5 514.5)"/>
  <circle cx="461.591" cy="515.178" r="19.831" fill="#D9D9D9" fill-opacity=".4" transform="rotate(163.278 461.591 515.178)"/>
  <circle cx="504.5" cy="411.5" r="15.657" fill="#9A9A9A" transform="rotate(163.278 504.5 411.5)"/>
  <circle cx="505.303" cy="411.999" r="14.593" fill="#D9D9D9" fill-opacity=".4" transform="rotate(163.278 505.303 411.999)"/>
  <path fill="#3C4952" fill-rule="evenodd" d="M634.612 439c19.669 0 37.085 8.261 47.768 20.952a61.181 61.181 0 0 1 4.533-.167c18.851 0 35.365 8.568 44.516 21.402 2.46-.405 5-.618 7.598-.618 22.076 0 39.973 15.319 39.973 34.215 0 18.897-17.896 34.215-39.973 34.215V549H566.433C538.58 549 516 529.673 516 505.831c0-23.841 22.58-43.168 50.433-43.168 5.827 0 11.422.846 16.629 2.401C593.08 449.525 612.41 439 634.612 439Zm-350.999 42c23.484 0 44.276 10.139 57.031 25.713a71.718 71.718 0 0 1 5.412-.204c22.507 0 42.223 10.515 53.148 26.266a54.256 54.256 0 0 1 9.072-.758c26.357 0 47.724 18.8 47.724 41.991s-21.367 41.991-47.724 41.991V616H202.213C168.958 616 142 592.28 142 563.02c0-29.259 26.958-52.979 60.213-52.979 6.956 0 13.637 1.038 19.853 2.947C234.027 493.917 257.106 481 283.613 481Z" clip-rule="evenodd"/>
  <defs>
    <radialGradient id="a" cx="0" cy="0" r="1" gradientTransform="rotate(90 0 453) scale(453)" gradientUnits="userSpaceOnUse">
      <stop offset=".333" stop-color="#ABEBFF"/>
      <stop offset="1" stop-color="#1E50D0" stop-opacity="0"/>
    </radialGradient>
  </defs>
</svg>
