<svg xmlns="http://www.w3.org/2000/svg" width="1156" height="787" fill="none" viewBox="0 0 1156 787">
  <path fill="#1A4438" fill-rule="evenodd" d="M1153.39 783H4.61C75.643 642.74 305.908 540 579 540s503.36 102.74 574.39 243Z" clip-rule="evenodd"/>
  <path fill="#258ACB" d="M885.812 211c8.592 0 16.2 4.216 20.866 10.692a23.162 23.162 0 0 1 1.98-.085c8.235 0 15.449 4.373 19.446 10.922a17.61 17.61 0 0 1 3.319-.315c9.643 0 17.461 7.818 17.461 17.461 0 9.644-7.818 17.461-17.461 17.461l-75.393.001c-12.167 0-22.03-9.864-22.03-22.031 0-12.167 9.863-22.03 22.03-22.03 2.545 0 4.99.432 7.264 1.226 4.376-7.931 12.82-13.302 22.518-13.302Zm-339-11c8.592 0 16.2 4.216 20.866 10.692a23.162 23.162 0 0 1 1.98-.085c8.235 0 15.449 4.373 19.446 10.922a17.61 17.61 0 0 1 3.319-.315c9.643 0 17.461 7.818 17.461 17.461 0 9.644-7.818 17.461-17.461 17.461l-75.393.001c-12.167 0-22.03-9.864-22.03-22.031 0-12.167 9.863-22.03 22.03-22.03 2.545 0 4.99.432 7.264 1.226 4.376-7.931 12.82-13.302 22.518-13.302Z"/>
  <circle cx="728.5" cy="228.5" r="60.5" fill="#D9D9D9"/>
  <circle cx="729" cy="228" r="228" fill="url(#a)" fill-opacity=".42"/>
  <path fill="#253F57" d="M440.842 452.992h33.476V603h-33.476V452.992Z"/>
  <path fill="#253F57" d="M465.445 438.262c0 15.414-13.001 27.909-29.04 27.909-16.038 0-29.039-12.495-29.039-27.909 0-15.413 13.001-27.908 29.039-27.908 16.039 0 29.04 12.495 29.04 27.908Z"/>
  <path fill="#253F57" d="M498.921 438.262c0 15.414-13.001 27.909-29.039 27.909-16.039 0-29.04-12.495-29.04-27.909 0-15.413 13.001-27.908 29.04-27.908 16.038 0 29.039 12.495 29.039 27.908Z"/>
  <path fill="#253F57" d="M465.445 461.907c0 15.414-13.001 27.909-29.04 27.909-16.038 0-29.039-12.495-29.039-27.909 0-15.413 13.001-27.908 29.039-27.908 16.039 0 29.04 12.495 29.04 27.908ZM557 430.122c0 15.414-13.001 27.909-29.039 27.909-16.039 0-29.04-12.495-29.04-27.909 0-15.413 13.001-27.908 29.04-27.908 16.038 0 29.039 12.495 29.039 27.908Zm-77.842-87.214c0 15.414-13.001 27.909-29.039 27.909-16.039 0-29.04-12.495-29.04-27.909 0-15.413 13.001-27.908 29.04-27.908 16.038 0 29.039 12.495 29.039 27.908Z"/>
  <path fill="#253F57" d="M440.842 366.166c0 15.413-13.001 27.908-29.039 27.908-16.039 0-29.04-12.495-29.04-27.908 0-15.414 13.001-27.909 29.04-27.909 16.038 0 29.039 12.495 29.039 27.909Z"/>
  <path fill="#253F57" d="M421.079 410.354c0 15.413-13.001 27.908-29.039 27.908-16.039 0-29.04-12.495-29.04-27.908 0-15.413 13.001-27.909 29.04-27.909 16.038 0 29.039 12.496 29.039 27.909Zm96.798-44.188c0 15.413-13.001 27.908-29.039 27.908-16.038 0-29.04-12.495-29.04-27.908 0-15.414 13.002-27.909 29.04-27.909 16.038 0 29.039 12.495 29.039 27.909Z"/>
  <path fill="#253F57" d="M479.158 378.182c0 15.413-13.001 27.908-29.039 27.908-16.039 0-29.04-12.495-29.04-27.908 0-15.414 13.001-27.909 29.04-27.909 16.038 0 29.039 12.495 29.039 27.909Zm61.306 27.908c0 15.414-13.002 27.909-29.04 27.909-16.038 0-29.039-12.495-29.039-27.909 0-15.413 13.001-27.908 29.039-27.908 16.038 0 29.04 12.495 29.04 27.908Z"/>
  <path fill="#253F57" d="M498.921 406.09c0 15.414-13.001 27.909-29.039 27.909-16.039 0-29.04-12.495-29.04-27.909 0-15.413 13.001-27.908 29.04-27.908 16.038 0 29.039 12.495 29.039 27.908Z"/>
  <path fill="#253F57" d="M527.961 452.992c0 15.413-13.002 27.908-29.04 27.908-16.038 0-29.039-12.495-29.039-27.908 0-15.414 13.001-27.909 29.039-27.909 16.038 0 29.04 12.495 29.04 27.909Zm-98.815-3.876c0 15.413-13.002 27.908-29.04 27.908-16.038 0-29.039-12.495-29.039-27.908 0-15.414 13.001-27.909 29.039-27.909 16.038 0 29.04 12.495 29.04 27.909Z"/>
  <path fill="#253F57" d="M450.119 406.09c0 15.414-13.002 27.909-29.04 27.909-16.038 0-29.039-12.495-29.039-27.909 0-15.413 13.001-27.908 29.039-27.908 16.038 0 29.04 12.495 29.04 27.908Zm0 100.664 58.088-45.622 5.87 6.903-58.088 45.622-5.87-6.903Zm-47.164-12.675 56.692 47.217-6.075 6.738-56.693-47.217 6.076-6.738Z"/>
  <path fill="#253F57" d="M420.676 514.042c0 13.165-11.106 23.838-24.805 23.838s-24.804-10.673-24.804-23.838c0-13.166 11.105-23.839 24.804-23.839 13.699 0 24.805 10.673 24.805 23.839Zm117.771-37.212c0 13.166-11.105 23.839-24.805 23.839-13.699 0-24.804-10.673-24.804-23.839 0-13.165 11.105-23.838 24.804-23.838 13.7 0 24.805 10.673 24.805 23.838Z"/>
  <path fill="#253F57" d="M449.715 494.273c0 13.166-11.105 23.839-24.804 23.839-13.7 0-24.805-10.673-24.805-23.839 0-13.165 11.105-23.838 24.805-23.838 13.699 0 24.804 10.673 24.804 23.838Z"/>
  <path fill="#253F57" d="M417.046 497.374c0 13.166-11.106 23.839-24.805 23.839s-24.804-10.673-24.804-23.839c0-13.165 11.105-23.838 24.804-23.838 13.699 0 24.805 10.673 24.805 23.838Z"/>
  <path fill="#253F57" d="M432.372 508.227c0 13.166-11.105 23.839-24.804 23.839-13.7 0-24.805-10.673-24.805-23.839 0-13.165 11.105-23.838 24.805-23.838 13.699 0 24.804 10.673 24.804 23.838Z"/>
  <path fill="#073D4F" d="m570.147 574.907 81.435-1.99 28.009-45.234-90.48 2.065-18.964 45.159Z"/>
  <g filter="url(#b)">
    <path fill="#95A187" fill-opacity=".16" d="m605.188 598.621 157.805-12.023-70.343-21.46-119.868 9.393 32.406 24.09Z"/>
  </g>
  <path fill="#9B8981" d="m602.666 593.143-10.545-64.065 5.174 64.065h5.371Z"/>
  <path fill="#B7A5A5" d="m597.295 593.143-5.174-63.911-4.031 34.117-2.495 21.922 11.7 7.872Z"/>
  <path fill="#B7A5A5" d="m575.045 577.862 17.268-48.475-3.646 17.599-7.1 35.352-6.522-4.476Z"/>
  <path fill="#9B8981" d="m585.787 582.338 6.423-52.797-10.643 52.797h4.22Z"/>
  <path fill="#073D4F" d="m603.817 599.781 91.69-7.415-16.492-64.683-89.904 1.689 14.706 70.409Z"/>
  <g opacity=".98">
    <path fill="#B4480C" d="M538.417 589.175c-1.828-1.025-1.468-3.387.378-3.85 0 0 29.919 3.064 31.77 3.861 1.85.798 1.606 3.289-.378 3.85-1.985.561-31.77-3.861-31.77-3.861Z"/>
    <path fill="#DF590F" d="M568.05 583.204c1.911.025 2.308 1.807.831 2.826 0 0-27.13 9.145-28.992 9.286-1.862.142-2.4-1.686-.831-2.825 1.568-1.139 28.992-9.287 28.992-9.287Z"/>
    <path fill="#FC8340" d="M544.391 583.714c-.764-1.17.226-2.474 1.487-2.188 0 0 16.977 10.963 17.828 12.005.851 1.042-.111 2.458-1.487 2.188-1.376-.27-17.828-12.005-17.828-12.005Z"/>
    <path fill="#FF881B" d="M566.111 574.796c0 5.471-4.547 9.907-10.155 9.907-5.609 0-10.155-4.436-10.155-9.907 0-5.472 1.238-14.366 10.155-21.796-1.61 10.403 10.155 16.324 10.155 21.796Z"/>
    <path fill="#FDF228" d="M558.04 569.966c0-3.715 3.489 6.564-1.884 7.346-2.265.513-4.506-.863-5.007-3.072-.5-2.21-.587-5.543 2.334-9.359.47 8.181 4.557 8.8 4.557 5.085Z"/>
  </g>
  <circle cx="554" cy="566" r="113" fill="url(#c)" fill-opacity=".34"/>
  <path fill="#258ACB" d="M661.812 289c8.592 0 16.2 4.216 20.866 10.692a23.162 23.162 0 0 1 1.98-.085c8.235 0 15.449 4.373 19.446 10.922a17.61 17.61 0 0 1 3.319-.315c9.643 0 17.461 7.818 17.461 17.461 0 9.644-7.818 17.461-17.461 17.461l-75.393.001c-12.167 0-22.03-9.864-22.03-22.031 0-12.167 9.863-22.03 22.03-22.03 2.545 0 4.99.432 7.264 1.226 4.376-7.931 12.82-13.302 22.518-13.302Z"/>
  <defs>
    <radialGradient id="a" cx="0" cy="0" r="1" gradientTransform="matrix(0 228 -228 0 729 228)" gradientUnits="userSpaceOnUse">
      <stop offset=".333" stop-color="#ABEBFF"/>
      <stop offset="1" stop-color="#1E50D0" stop-opacity="0"/>
    </radialGradient>
    <radialGradient id="c" cx="0" cy="0" r="1" gradientTransform="rotate(90 -6 560) scale(113)" gradientUnits="userSpaceOnUse">
      <stop stop-color="#F6FBBD"/>
      <stop offset="1" stop-color="#F6FBBD" stop-opacity="0"/>
    </radialGradient>
    <filter id="b" width="192.212" height="35.484" x="571.782" y="564.138" color-interpolation-filters="sRGB" filterUnits="userSpaceOnUse">
      <feFlood flood-opacity="0" result="BackgroundImageFix"/>
      <feBlend in="SourceGraphic" in2="BackgroundImageFix" result="shape"/>
      <feGaussianBlur result="effect1_foregroundBlur_220_2" stdDeviation=".5"/>
    </filter>
  </defs>
</svg>
